<svg id="visual" viewBox="0 0 900 600" width="900" height="600" xmlns="http://www.w3.org/2000/svg" xmlns:xlink="http://www.w3.org/1999/xlink" version="1.1"><rect x="0" y="0" width="900" height="600" fill="#001220"></rect><defs><linearGradient id="grad1_0" x1="33.3%" y1="0%" x2="100%" y2="100%"><stop offset="20%" stop-color="#001220" stop-opacity="1"></stop><stop offset="80%" stop-color="#001220" stop-opacity="1"></stop></linearGradient></defs><defs><linearGradient id="grad2_0" x1="0%" y1="0%" x2="66.7%" y2="100%"><stop offset="20%" stop-color="#001220" stop-opacity="1"></stop><stop offset="80%" stop-color="#001220" stop-opacity="1"></stop></linearGradient></defs><g transform="translate(900, 0)"><path d="M0 486.7C-56.4 462.1 -112.9 437.5 -173 417.6C-233.1 397.7 -296.8 382.4 -344.2 344.2C-391.5 306 -422.4 244.9 -443.5 183.7C-464.5 122.5 -475.6 61.3 -486.7 0L0 0Z" fill="#0046dd"></path></g><g transform="translate(0, 600)"><path d="M0 -486.7C58.8 -473 117.6 -459.2 182.2 -439.8C246.8 -420.4 317.2 -395.4 344.2 -344.2C371.2 -293 354.9 -215.6 371.4 -153.8C387.9 -92.1 437.3 -46.1 486.7 0L0 0Z" fill="#0046dd"></path></g></svg>