<svg id="visual" viewBox="0 0 960 1200" width="960" height="1200" xmlns="http://www.w3.org/2000/svg" xmlns:xlink="http://www.w3.org/1999/xlink" version="1.1"><rect x="0" y="0" width="960" height="1200" fill="#001220"></rect><path d="M0 367L26.7 358.5C53.3 350 106.7 333 160 329.3C213.3 325.7 266.7 335.3 320 316.2C373.3 297 426.7 249 480 258.8C533.3 268.7 586.7 336.3 640 350C693.3 363.7 746.7 323.3 800 314.3C853.3 305.3 906.7 327.7 933.3 338.8L960 350L960 1201L933.3 1201C906.7 1201 853.3 1201 800 1201C746.7 1201 693.3 1201 640 1201C586.7 1201 533.3 1201 480 1201C426.7 1201 373.3 1201 320 1201C266.7 1201 213.3 1201 160 1201C106.7 1201 53.3 1201 26.7 1201L0 1201Z" fill="#0066ff"></path><path d="M0 469L26.7 438.8C53.3 408.7 106.7 348.3 160 344C213.3 339.7 266.7 391.3 320 407.8C373.3 424.3 426.7 405.7 480 399.5C533.3 393.3 586.7 399.7 640 377.7C693.3 355.7 746.7 305.3 800 297.8C853.3 290.3 906.7 325.7 933.3 343.3L960 361L960 1201L933.3 1201C906.7 1201 853.3 1201 800 1201C746.7 1201 693.3 1201 640 1201C586.7 1201 533.3 1201 480 1201C426.7 1201 373.3 1201 320 1201C266.7 1201 213.3 1201 160 1201C106.7 1201 53.3 1201 26.7 1201L0 1201Z" fill="#005efa"></path><path d="M0 423L26.7 422.8C53.3 422.7 106.7 422.3 160 426.2C213.3 430 266.7 438 320 459.2C373.3 480.3 426.7 514.7 480 505.2C533.3 495.7 586.7 442.3 640 429.8C693.3 417.3 746.7 445.7 800 469C853.3 492.3 906.7 510.7 933.3 519.8L960 529L960 1201L933.3 1201C906.7 1201 853.3 1201 800 1201C746.7 1201 693.3 1201 640 1201C586.7 1201 533.3 1201 480 1201C426.7 1201 373.3 1201 320 1201C266.7 1201 213.3 1201 160 1201C106.7 1201 53.3 1201 26.7 1201L0 1201Z" fill="#0055f5"></path><path d="M0 591L26.7 593.3C53.3 595.7 106.7 600.3 160 608.7C213.3 617 266.7 629 320 612.2C373.3 595.3 426.7 549.7 480 542C533.3 534.3 586.7 564.7 640 570.5C693.3 576.3 746.7 557.7 800 541.3C853.3 525 906.7 511 933.3 504L960 497L960 1201L933.3 1201C906.7 1201 853.3 1201 800 1201C746.7 1201 693.3 1201 640 1201C586.7 1201 533.3 1201 480 1201C426.7 1201 373.3 1201 320 1201C266.7 1201 213.3 1201 160 1201C106.7 1201 53.3 1201 26.7 1201L0 1201Z" fill="#004df0"></path><path d="M0 674L26.7 661.3C53.3 648.7 106.7 623.3 160 618.2C213.3 613 266.7 628 320 624.7C373.3 621.3 426.7 599.7 480 608.5C533.3 617.3 586.7 656.7 640 683.8C693.3 711 746.7 726 800 703.3C853.3 680.7 906.7 620.3 933.3 590.2L960 560L960 1201L933.3 1201C906.7 1201 853.3 1201 800 1201C746.7 1201 693.3 1201 640 1201C586.7 1201 533.3 1201 480 1201C426.7 1201 373.3 1201 320 1201C266.7 1201 213.3 1201 160 1201C106.7 1201 53.3 1201 26.7 1201L0 1201Z" fill="#0044eb"></path><path d="M0 817L26.7 810C53.3 803 106.7 789 160 772.3C213.3 755.7 266.7 736.3 320 726C373.3 715.7 426.7 714.3 480 730.8C533.3 747.3 586.7 781.7 640 801.3C693.3 821 746.7 826 800 802.5C853.3 779 906.7 727 933.3 701L960 675L960 1201L933.3 1201C906.7 1201 853.3 1201 800 1201C746.7 1201 693.3 1201 640 1201C586.7 1201 533.3 1201 480 1201C426.7 1201 373.3 1201 320 1201C266.7 1201 213.3 1201 160 1201C106.7 1201 53.3 1201 26.7 1201L0 1201Z" fill="#003ae5"></path><path d="M0 870L26.7 864.8C53.3 859.7 106.7 849.3 160 840.3C213.3 831.3 266.7 823.7 320 823C373.3 822.3 426.7 828.7 480 830.5C533.3 832.3 586.7 829.7 640 836.3C693.3 843 746.7 859 800 850C853.3 841 906.7 807 933.3 790L960 773L960 1201L933.3 1201C906.7 1201 853.3 1201 800 1201C746.7 1201 693.3 1201 640 1201C586.7 1201 533.3 1201 480 1201C426.7 1201 373.3 1201 320 1201C266.7 1201 213.3 1201 160 1201C106.7 1201 53.3 1201 26.7 1201L0 1201Z" fill="#0330df"></path><path d="M0 971L26.7 965C53.3 959 106.7 947 160 945.8C213.3 944.7 266.7 954.3 320 940.5C373.3 926.7 426.7 889.3 480 870.2C533.3 851 586.7 850 640 863.3C693.3 876.7 746.7 904.3 800 922.5C853.3 940.7 906.7 949.3 933.3 953.7L960 958L960 1201L933.3 1201C906.7 1201 853.3 1201 800 1201C746.7 1201 693.3 1201 640 1201C586.7 1201 533.3 1201 480 1201C426.7 1201 373.3 1201 320 1201C266.7 1201 213.3 1201 160 1201C106.7 1201 53.3 1201 26.7 1201L0 1201Z" fill="#0725d9"></path><path d="M0 1046L26.7 1032.2C53.3 1018.3 106.7 990.7 160 981.5C213.3 972.3 266.7 981.7 320 990.8C373.3 1000 426.7 1009 480 1012.2C533.3 1015.3 586.7 1012.7 640 1004.8C693.3 997 746.7 984 800 978C853.3 972 906.7 973 933.3 973.5L960 974L960 1201L933.3 1201C906.7 1201 853.3 1201 800 1201C746.7 1201 693.3 1201 640 1201C586.7 1201 533.3 1201 480 1201C426.7 1201 373.3 1201 320 1201C266.7 1201 213.3 1201 160 1201C106.7 1201 53.3 1201 26.7 1201L0 1201Z" fill="#0c17d3"></path><path d="M0 1114L26.7 1105C53.3 1096 106.7 1078 160 1068.5C213.3 1059 266.7 1058 320 1055.7C373.3 1053.3 426.7 1049.7 480 1053C533.3 1056.3 586.7 1066.7 640 1073C693.3 1079.3 746.7 1081.7 800 1082.5C853.3 1083.3 906.7 1082.7 933.3 1082.3L960 1082L960 1201L933.3 1201C906.7 1201 853.3 1201 800 1201C746.7 1201 693.3 1201 640 1201C586.7 1201 533.3 1201 480 1201C426.7 1201 373.3 1201 320 1201C266.7 1201 213.3 1201 160 1201C106.7 1201 53.3 1201 26.7 1201L0 1201Z" fill="#1100cc"></path></svg>