<svg id="visual" viewBox="0 0 960 540" width="960" height="540" xmlns="http://www.w3.org/2000/svg" xmlns:xlink="http://www.w3.org/1999/xlink" version="1.1"><rect x="0" y="0" width="960" height="540" fill="#001220"></rect><path d="M0 265L22.8 258.2C45.7 251.3 91.3 237.7 137 230.3C182.7 223 228.3 222 274 222.3C319.7 222.7 365.3 224.3 411.2 231.8C457 239.3 503 252.7 548.8 246.8C594.7 241 640.3 216 686 203C731.7 190 777.3 189 823 202.8C868.7 216.7 914.3 245.3 937.2 259.7L960 274L960 0L937.2 0C914.3 0 868.7 0 823 0C777.3 0 731.7 0 686 0C640.3 0 594.7 0 548.8 0C503 0 457 0 411.2 0C365.3 0 319.7 0 274 0C228.3 0 182.7 0 137 0C91.3 0 45.7 0 22.8 0L0 0Z" fill="#1f09ff"></path><path d="M0 211L22.8 214.8C45.7 218.7 91.3 226.3 137 228.2C182.7 230 228.3 226 274 218.2C319.7 210.3 365.3 198.7 411.2 196.2C457 193.7 503 200.3 548.8 200C594.7 199.7 640.3 192.3 686 193.3C731.7 194.3 777.3 203.7 823 201.8C868.7 200 914.3 187 937.2 180.5L960 174L960 0L937.2 0C914.3 0 868.7 0 823 0C777.3 0 731.7 0 686 0C640.3 0 594.7 0 548.8 0C503 0 457 0 411.2 0C365.3 0 319.7 0 274 0C228.3 0 182.7 0 137 0C91.3 0 45.7 0 22.8 0L0 0Z" fill="#3121ff"></path><path d="M0 149L22.8 149.2C45.7 149.3 91.3 149.7 137 154.2C182.7 158.7 228.3 167.3 274 172.5C319.7 177.7 365.3 179.3 411.2 177.3C457 175.3 503 169.7 548.8 176.7C594.7 183.7 640.3 203.3 686 211.2C731.7 219 777.3 215 823 212.8C868.7 210.7 914.3 210.3 937.2 210.2L960 210L960 0L937.2 0C914.3 0 868.7 0 823 0C777.3 0 731.7 0 686 0C640.3 0 594.7 0 548.8 0C503 0 457 0 411.2 0C365.3 0 319.7 0 274 0C228.3 0 182.7 0 137 0C91.3 0 45.7 0 22.8 0L0 0Z" fill="#3e30ff"></path><path d="M0 191L22.8 189C45.7 187 91.3 183 137 175.5C182.7 168 228.3 157 274 149.8C319.7 142.7 365.3 139.3 411.2 137.8C457 136.3 503 136.7 548.8 135.7C594.7 134.7 640.3 132.3 686 136.5C731.7 140.7 777.3 151.3 823 156.3C868.7 161.3 914.3 160.7 937.2 160.3L960 160L960 0L937.2 0C914.3 0 868.7 0 823 0C777.3 0 731.7 0 686 0C640.3 0 594.7 0 548.8 0C503 0 457 0 411.2 0C365.3 0 319.7 0 274 0C228.3 0 182.7 0 137 0C91.3 0 45.7 0 22.8 0L0 0Z" fill="#4a3dfe"></path><path d="M0 119L22.8 122C45.7 125 91.3 131 137 132.3C182.7 133.7 228.3 130.3 274 125.3C319.7 120.3 365.3 113.7 411.2 119C457 124.3 503 141.7 548.8 143.3C594.7 145 640.3 131 686 129.8C731.7 128.7 777.3 140.3 823 139.5C868.7 138.7 914.3 125.3 937.2 118.7L960 112L960 0L937.2 0C914.3 0 868.7 0 823 0C777.3 0 731.7 0 686 0C640.3 0 594.7 0 548.8 0C503 0 457 0 411.2 0C365.3 0 319.7 0 274 0C228.3 0 182.7 0 137 0C91.3 0 45.7 0 22.8 0L0 0Z" fill="#5448fd"></path><path d="M0 130L22.8 129.8C45.7 129.7 91.3 129.3 137 131.8C182.7 134.3 228.3 139.7 274 142.3C319.7 145 365.3 145 411.2 143.2C457 141.3 503 137.7 548.8 131C594.7 124.3 640.3 114.7 686 116C731.7 117.3 777.3 129.7 823 133.8C868.7 138 914.3 134 937.2 132L960 130L960 0L937.2 0C914.3 0 868.7 0 823 0C777.3 0 731.7 0 686 0C640.3 0 594.7 0 548.8 0C503 0 457 0 411.2 0C365.3 0 319.7 0 274 0C228.3 0 182.7 0 137 0C91.3 0 45.7 0 22.8 0L0 0Z" fill="#5e52fd"></path><path d="M0 98L22.8 100C45.7 102 91.3 106 137 106.7C182.7 107.3 228.3 104.7 274 99.7C319.7 94.7 365.3 87.3 411.2 90.3C457 93.3 503 106.7 548.8 107.2C594.7 107.7 640.3 95.3 686 89.7C731.7 84 777.3 85 823 82.7C868.7 80.3 914.3 74.7 937.2 71.8L960 69L960 0L937.2 0C914.3 0 868.7 0 823 0C777.3 0 731.7 0 686 0C640.3 0 594.7 0 548.8 0C503 0 457 0 411.2 0C365.3 0 319.7 0 274 0C228.3 0 182.7 0 137 0C91.3 0 45.7 0 22.8 0L0 0Z" fill="#675cfc"></path><path d="M0 86L22.8 83.5C45.7 81 91.3 76 137 70.8C182.7 65.7 228.3 60.3 274 57.8C319.7 55.3 365.3 55.7 411.2 59.5C457 63.3 503 70.7 548.8 71C594.7 71.3 640.3 64.7 686 65.5C731.7 66.3 777.3 74.7 823 75.8C868.7 77 914.3 71 937.2 68L960 65L960 0L937.2 0C914.3 0 868.7 0 823 0C777.3 0 731.7 0 686 0C640.3 0 594.7 0 548.8 0C503 0 457 0 411.2 0C365.3 0 319.7 0 274 0C228.3 0 182.7 0 137 0C91.3 0 45.7 0 22.8 0L0 0Z" fill="#6f66fa"></path><path d="M0 52L22.8 49C45.7 46 91.3 40 137 40.8C182.7 41.7 228.3 49.3 274 54.2C319.7 59 365.3 61 411.2 62.3C457 63.7 503 64.3 548.8 65.3C594.7 66.3 640.3 67.7 686 63.2C731.7 58.7 777.3 48.3 823 46.8C868.7 45.3 914.3 52.7 937.2 56.3L960 60L960 0L937.2 0C914.3 0 868.7 0 823 0C777.3 0 731.7 0 686 0C640.3 0 594.7 0 548.8 0C503 0 457 0 411.2 0C365.3 0 319.7 0 274 0C228.3 0 182.7 0 137 0C91.3 0 45.7 0 22.8 0L0 0Z" fill="#786ff9"></path><path d="M0 28L22.8 29.8C45.7 31.7 91.3 35.3 137 35.5C182.7 35.7 228.3 32.3 274 32.7C319.7 33 365.3 37 411.2 39.2C457 41.3 503 41.7 548.8 40.7C594.7 39.7 640.3 37.3 686 33.7C731.7 30 777.3 25 823 22.7C868.7 20.3 914.3 20.7 937.2 20.8L960 21L960 0L937.2 0C914.3 0 868.7 0 823 0C777.3 0 731.7 0 686 0C640.3 0 594.7 0 548.8 0C503 0 457 0 411.2 0C365.3 0 319.7 0 274 0C228.3 0 182.7 0 137 0C91.3 0 45.7 0 22.8 0L0 0Z" fill="#8078f7"></path></svg>