<svg id="visual" viewBox="0 0 900 600" width="900" height="600" xmlns="http://www.w3.org/2000/svg" xmlns:xlink="http://www.w3.org/1999/xlink" version="1.1"><path d="M0 43L13.7 43C27.3 43 54.7 43 82 40C109.3 37 136.7 31 163.8 34C191 37 218 49 245.2 48C272.3 47 299.7 33 327 26C354.3 19 381.7 19 409 19C436.3 19 463.7 19 491 19C518.3 19 545.7 19 573 25C600.3 31 627.7 43 654.8 49C682 55 709 55 736.2 53C763.3 51 790.7 47 818 43C845.3 39 872.7 35 886.3 33L900 31L900 0L886.3 0C872.7 0 845.3 0 818 0C790.7 0 763.3 0 736.2 0C709 0 682 0 654.8 0C627.7 0 600.3 0 573 0C545.7 0 518.3 0 491 0C463.7 0 436.3 0 409 0C381.7 0 354.3 0 327 0C299.7 0 272.3 0 245.2 0C218 0 191 0 163.8 0C136.7 0 109.3 0 82 0C54.7 0 27.3 0 13.7 0L0 0Z" fill="#000cc4"></path><path d="M0 109L13.7 101C27.3 93 54.7 77 82 68C109.3 59 136.7 57 163.8 63C191 69 218 83 245.2 83C272.3 83 299.7 69 327 64C354.3 59 381.7 63 409 67C436.3 71 463.7 75 491 77C518.3 79 545.7 79 573 80C600.3 81 627.7 83 654.8 88C682 93 709 101 736.2 99C763.3 97 790.7 85 818 81C845.3 77 872.7 81 886.3 83L900 85L900 29L886.3 31C872.7 33 845.3 37 818 41C790.7 45 763.3 49 736.2 51C709 53 682 53 654.8 47C627.7 41 600.3 29 573 23C545.7 17 518.3 17 491 17C463.7 17 436.3 17 409 17C381.7 17 354.3 17 327 24C299.7 31 272.3 45 245.2 46C218 47 191 35 163.8 32C136.7 29 109.3 35 82 38C54.7 41 27.3 41 13.7 41L0 41Z" fill="#0018b7"></path><path d="M0 175L13.7 162C27.3 149 54.7 123 82 109C109.3 95 136.7 93 163.8 98C191 103 218 115 245.2 122C272.3 129 299.7 131 327 132C354.3 133 381.7 133 409 129C436.3 125 463.7 117 491 115C518.3 113 545.7 117 573 123C600.3 129 627.7 137 654.8 146C682 155 709 165 736.2 167C763.3 169 790.7 163 818 153C845.3 143 872.7 129 886.3 122L900 115L900 83L886.3 81C872.7 79 845.3 75 818 79C790.7 83 763.3 95 736.2 97C709 99 682 91 654.8 86C627.7 81 600.3 79 573 78C545.7 77 518.3 77 491 75C463.7 73 436.3 69 409 65C381.7 61 354.3 57 327 62C299.7 67 272.3 81 245.2 81C218 81 191 67 163.8 61C136.7 55 109.3 57 82 66C54.7 75 27.3 91 13.7 99L0 107Z" fill="#001eaa"></path><path d="M0 247L13.7 228C27.3 209 54.7 171 82 163C109.3 155 136.7 177 163.8 194C191 211 218 223 245.2 224C272.3 225 299.7 215 327 209C354.3 203 381.7 201 409 199C436.3 197 463.7 195 491 191C518.3 187 545.7 181 573 181C600.3 181 627.7 187 654.8 202C682 217 709 241 736.2 248C763.3 255 790.7 245 818 225C845.3 205 872.7 175 886.3 160L900 145L900 113L886.3 120C872.7 127 845.3 141 818 151C790.7 161 763.3 167 736.2 165C709 163 682 153 654.8 144C627.7 135 600.3 127 573 121C545.7 115 518.3 111 491 113C463.7 115 436.3 123 409 127C381.7 131 354.3 131 327 130C299.7 129 272.3 127 245.2 120C218 113 191 101 163.8 96C136.7 91 109.3 93 82 107C54.7 121 27.3 147 13.7 160L0 173Z" fill="#00219c"></path><path d="M0 307L13.7 303C27.3 299 54.7 291 82 289C109.3 287 136.7 291 163.8 310C191 329 218 363 245.2 362C272.3 361 299.7 325 327 316C354.3 307 381.7 325 409 336C436.3 347 463.7 351 491 336C518.3 321 545.7 287 573 272C600.3 257 627.7 261 654.8 278C682 295 709 325 736.2 336C763.3 347 790.7 339 818 321C845.3 303 872.7 275 886.3 261L900 247L900 143L886.3 158C872.7 173 845.3 203 818 223C790.7 243 763.3 253 736.2 246C709 239 682 215 654.8 200C627.7 185 600.3 179 573 179C545.7 179 518.3 185 491 189C463.7 193 436.3 195 409 197C381.7 199 354.3 201 327 207C299.7 213 272.3 223 245.2 222C218 221 191 209 163.8 192C136.7 175 109.3 153 82 161C54.7 169 27.3 207 13.7 226L0 245Z" fill="#00248e"></path><path d="M0 331L13.7 328C27.3 325 54.7 319 82 318C109.3 317 136.7 321 163.8 341C191 361 218 397 245.2 396C272.3 395 299.7 357 327 346C354.3 335 381.7 351 409 362C436.3 373 463.7 379 491 363C518.3 347 545.7 309 573 294C600.3 279 627.7 287 654.8 305C682 323 709 351 736.2 363C763.3 375 790.7 371 818 355C845.3 339 872.7 311 886.3 297L900 283L900 245L886.3 259C872.7 273 845.3 301 818 319C790.7 337 763.3 345 736.2 334C709 323 682 293 654.8 276C627.7 259 600.3 255 573 270C545.7 285 518.3 319 491 334C463.7 349 436.3 345 409 334C381.7 323 354.3 305 327 314C299.7 323 272.3 359 245.2 360C218 361 191 327 163.8 308C136.7 289 109.3 285 82 287C54.7 289 27.3 297 13.7 301L0 305Z" fill="#002580"></path><path d="M0 355L13.7 354C27.3 353 54.7 351 82 349C109.3 347 136.7 345 163.8 361C191 377 218 411 245.2 411C272.3 411 299.7 377 327 366C354.3 355 381.7 367 409 379C436.3 391 463.7 403 491 392C518.3 381 545.7 347 573 330C600.3 313 627.7 313 654.8 327C682 341 709 369 736.2 381C763.3 393 790.7 389 818 376C845.3 363 872.7 341 886.3 330L900 319L900 281L886.3 295C872.7 309 845.3 337 818 353C790.7 369 763.3 373 736.2 361C709 349 682 321 654.8 303C627.7 285 600.3 277 573 292C545.7 307 518.3 345 491 361C463.7 377 436.3 371 409 360C381.7 349 354.3 333 327 344C299.7 355 272.3 393 245.2 394C218 395 191 359 163.8 339C136.7 319 109.3 315 82 316C54.7 317 27.3 323 13.7 326L0 329Z" fill="#002572"></path><path d="M0 505L13.7 497C27.3 489 54.7 473 82 467C109.3 461 136.7 465 163.8 472C191 479 218 489 245.2 488C272.3 487 299.7 475 327 469C354.3 463 381.7 463 409 468C436.3 473 463.7 483 491 487C518.3 491 545.7 489 573 490C600.3 491 627.7 495 654.8 496C682 497 709 495 736.2 494C763.3 493 790.7 493 818 487C845.3 481 872.7 469 886.3 463L900 457L900 317L886.3 328C872.7 339 845.3 361 818 374C790.7 387 763.3 391 736.2 379C709 367 682 339 654.8 325C627.7 311 600.3 311 573 328C545.7 345 518.3 379 491 390C463.7 401 436.3 389 409 377C381.7 365 354.3 353 327 364C299.7 375 272.3 409 245.2 409C218 409 191 375 163.8 359C136.7 343 109.3 345 82 347C54.7 349 27.3 351 13.7 352L0 353Z" fill="#002462"></path><path d="M0 529L13.7 523C27.3 517 54.7 505 82 501C109.3 497 136.7 501 163.8 505C191 509 218 513 245.2 510C272.3 507 299.7 497 327 493C354.3 489 381.7 491 409 496C436.3 501 463.7 509 491 513C518.3 517 545.7 517 573 519C600.3 521 627.7 525 654.8 524C682 523 709 517 736.2 516C763.3 515 790.7 519 818 516C845.3 513 872.7 503 886.3 498L900 493L900 455L886.3 461C872.7 467 845.3 479 818 485C790.7 491 763.3 491 736.2 492C709 493 682 495 654.8 494C627.7 493 600.3 489 573 488C545.7 487 518.3 489 491 485C463.7 481 436.3 471 409 466C381.7 461 354.3 461 327 467C299.7 473 272.3 485 245.2 486C218 487 191 477 163.8 470C136.7 463 109.3 459 82 465C54.7 471 27.3 487 13.7 495L0 503Z" fill="#002152"></path><path d="M0 559L13.7 553C27.3 547 54.7 535 82 530C109.3 525 136.7 527 163.8 528C191 529 218 529 245.2 527C272.3 525 299.7 521 327 519C354.3 517 381.7 517 409 520C436.3 523 463.7 529 491 533C518.3 537 545.7 539 573 542C600.3 545 627.7 549 654.8 548C682 547 709 541 736.2 541C763.3 541 790.7 547 818 545C845.3 543 872.7 533 886.3 528L900 523L900 491L886.3 496C872.7 501 845.3 511 818 514C790.7 517 763.3 513 736.2 514C709 515 682 521 654.8 522C627.7 523 600.3 519 573 517C545.7 515 518.3 515 491 511C463.7 507 436.3 499 409 494C381.7 489 354.3 487 327 491C299.7 495 272.3 505 245.2 508C218 511 191 507 163.8 503C136.7 499 109.3 495 82 499C54.7 503 27.3 515 13.7 521L0 527Z" fill="#001d41"></path><path d="M0 589L13.7 586C27.3 583 54.7 577 82 573C109.3 569 136.7 567 163.8 567C191 567 218 569 245.2 569C272.3 569 299.7 567 327 567C354.3 567 381.7 569 409 569C436.3 569 463.7 567 491 569C518.3 571 545.7 577 573 580C600.3 583 627.7 583 654.8 578C682 573 709 563 736.2 562C763.3 561 790.7 569 818 572C845.3 575 872.7 573 886.3 572L900 571L900 521L886.3 526C872.7 531 845.3 541 818 543C790.7 545 763.3 539 736.2 539C709 539 682 545 654.8 546C627.7 547 600.3 543 573 540C545.7 537 518.3 535 491 531C463.7 527 436.3 521 409 518C381.7 515 354.3 515 327 517C299.7 519 272.3 523 245.2 525C218 527 191 527 163.8 526C136.7 525 109.3 523 82 528C54.7 533 27.3 545 13.7 551L0 557Z" fill="#001830"></path><path d="M0 601L13.7 601C27.3 601 54.7 601 82 601C109.3 601 136.7 601 163.8 601C191 601 218 601 245.2 601C272.3 601 299.7 601 327 601C354.3 601 381.7 601 409 601C436.3 601 463.7 601 491 601C518.3 601 545.7 601 573 601C600.3 601 627.7 601 654.8 601C682 601 709 601 736.2 601C763.3 601 790.7 601 818 601C845.3 601 872.7 601 886.3 601L900 601L900 569L886.3 570C872.7 571 845.3 573 818 570C790.7 567 763.3 559 736.2 560C709 561 682 571 654.8 576C627.7 581 600.3 581 573 578C545.7 575 518.3 569 491 567C463.7 565 436.3 567 409 567C381.7 567 354.3 565 327 565C299.7 565 272.3 567 245.2 567C218 567 191 565 163.8 565C136.7 565 109.3 567 82 571C54.7 575 27.3 581 13.7 584L0 587Z" fill="#001220"></path></svg>